<?xml version="1.0" encoding="utf-8"?>
<!-- Generator: Adobe Illustrator 26.0.3, SVG Export Plug-In . SVG Version: 6.00 Build 0)  -->
<svg version="1.1" id="레이어_2" xmlns="http://www.w3.org/2000/svg" xmlns:xlink="http://www.w3.org/1999/xlink" x="0px"
	 y="0px" viewBox="0 0 500 100" style="enable-background:new 0 0 500 100;" xml:space="preserve">
<g>
	<g>
		<path d="M15.6,49.9c0.5,0,0.9,0.1,1.3,0.1c2.1,0.1,3.9-0.4,5.3-2.1c0.9-1.1,1.4-2.4,1.5-3.8c0.1-0.7,0.1-1.5,0.1-2.2
			c0-8.3,0-16.5,0-24.8c0-0.5,0-0.9-0.1-1.4c-0.1-1.1-0.9-1.8-1.8-2.4c-0.1-0.1-0.2-0.1-0.3-0.3c3.3-0.2,6.7-0.1,10.1,0
			c-0.2,0.2-0.4,0.3-0.7,0.5c-0.8,0.5-1.1,1.3-1.2,2.2c0,0.4-0.1,0.8-0.1,1.2c0,8.2,0,16.3,0,24.5c0,2.2-0.5,4.2-1.6,6.1
			c-1.6,2.4-3.9,3.8-6.7,4.5c-1.2,0.3-2.5,0.3-3.8,0.4c-0.2,0-0.6-0.2-0.8-0.4C16.4,51.3,16,50.6,15.6,49.9z"/>
	</g>
	<g id="MzihUn_00000036222827659184052630000008203990830755494821_">
		<g>
			<path d="M213.1,11.3c2.2,0,4.4,0,6.6,0c0.3,0,0.4,0.1,0.6,0.3c4.6,7.8,9.3,15.5,13.9,23.3c0.1,0.1,0.1,0.2,0.2,0.4
				c0.1-0.1,0.2-0.2,0.2-0.4c4.5-7.8,9-15.5,13.6-23.3c0.2-0.3,0.3-0.4,0.6-0.4c2.1,0,4.3,0,6.4,0c0.1,0,0.3,0,0.4,0
				c0,0,0,0.1,0.1,0.1c-0.1,0.1-0.2,0.2-0.3,0.2c-0.4,0.2-0.7,0.4-1.1,0.7c-0.7,0.5-1,1.2-1.1,2.1c0,0.4-0.1,0.7-0.1,1.1
				c0,8.1,0,16.3,0,24.4c0,0.4,0,0.8,0.1,1.1c0.2,1.3,1,2,2.1,2.5c0.1,0.1,0.2,0.1,0.3,0.2c0,0,0,0.1,0,0.1c-3.6,0-7.2,0-10.9,0
				c0.1-0.1,0.1-0.2,0.2-0.2c0.2-0.1,0.4-0.2,0.7-0.4c1.1-0.6,1.7-1.7,1.7-3c0-1.2,0-2.4,0-3.5c0-4.8,0-9.6,0-14.4
				c0-0.2,0-0.3,0-0.5c0,0-0.1,0-0.1-0.1c-0.1,0.1-0.2,0.2-0.3,0.3c-0.7,1.2-1.4,2.4-2.2,3.6c-3.6,5.9-7.2,11.9-10.7,17.8
				c-0.2,0.3-0.3,0.3-0.6,0.4c-0.8,0.1-1.2-0.2-1.6-0.9c-4.3-6.9-8.6-13.8-12.9-20.7c-0.1-0.1-0.2-0.3-0.3-0.5c0,0.2,0,0.2,0,0.3
				c0,5.9,0,11.9,0,17.8c0,0.3,0,0.6,0,0.9c0.1,1.3,0.9,2.1,2,2.6c0.1,0.1,0.3,0.2,0.4,0.2c0,0,0,0.1,0,0.1c-2.7,0-5.4,0-8,0
				c0-0.1,0-0.2,0-0.2c1.4-0.6,2.3-1.5,2.4-3.1c0-0.3,0-0.5,0-0.8c0-8.2,0-16.3,0-24.5c0-0.2,0-0.4,0-0.6c-0.1-0.7-0.1-1.4-0.7-1.9
				c-0.5-0.5-1.2-0.9-1.8-1.3C213.1,11.5,213.1,11.4,213.1,11.3z"/>
		</g>
	</g>
	<path d="M456.5,11.3c8.4,0,16.7,0,25.1,0c0,1.6,0,3.2,0,4.9c-0.2-0.1-0.3-0.1-0.4-0.2c-1.3-1.4-3-1.9-4.8-1.9
		c-2.7-0.1-5.4-0.1-8-0.1c-1,0-2,0-3,0c-0.1,0-0.3,0-0.4,0c0,3.8,0,7.6,0,11.3c0.1,0,0.2,0,0.3,0c2.9,0,5.8,0,8.7,0
		c0.6,0,1.3-0.1,1.9-0.2c1.2-0.2,2.2-0.8,3.1-1.7c0.1-0.1,0.3-0.2,0.5-0.3c0,2.4,0,4.7,0,7.1c-0.1,0-0.3-0.1-0.3-0.1
		c-1.4-1.6-3.2-2-5.1-2c-2.9,0-5.8,0-8.8,0c0,0-0.1,0-0.2,0c0,4.4,0,8.7,0,13.1c0.1,0,0.3,0,0.4,0c3.2,0,6.5,0,9.7,0
		c0.9,0,1.8-0.1,2.7-0.2c1.4-0.1,2.5-0.8,3.5-1.7c0.1-0.1,0.3-0.2,0.5-0.3c0,1.7,0,3.3,0,4.9c-8.4,0-16.8,0-25.3,0
		c0.2-0.1,0.2-0.2,0.3-0.3c0.3-0.2,0.6-0.4,0.9-0.6c0.9-0.6,1.3-1.4,1.3-2.5c0-0.3,0-0.5,0-0.8c0-8.1,0-16.2,0-24.4c0-0.3,0-0.6,0-1
		c-0.1-1.4-1-2.2-2.1-2.8c-0.1-0.1-0.2-0.2-0.4-0.2C456.5,11.4,456.5,11.4,456.5,11.3z"/>
	<path d="M441.3,11.3c-0.1,0.1-0.2,0.2-0.3,0.3c-0.4,0.2-0.7,0.4-1.1,0.7c-0.8,0.5-1.1,1.3-1.2,2.2c0,0.3,0,0.7,0,1
		c0,8.1,0,16.2,0,24.3c0,0.6,0.1,1.2,0.2,1.8c0.2,0.8,0.8,1.4,1.4,1.9c0.1,0.1,0.2,0.2,0.4,0.4c0,0,0,0.1-0.1,0.1
		c-0.3,0-0.6,0-0.8,0c-1.7,0-3.3,0-5,0c-0.3,0-0.4-0.1-0.6-0.3c-5.8-6.8-11.6-13.6-17.5-20.4c-0.8-1-1.7-1.9-2.6-3
		c0,0.2,0,0.3,0,0.4c0,6.7,0,13.4,0,20.1c0,1.4,0.8,2.2,2,2.8c0.1,0.1,0.3,0.2,0.4,0.2c0,0,0,0.1,0,0.1c-2.7,0-5.4,0-8.2,0
		c0.1-0.1,0.2-0.2,0.3-0.3c0.4-0.3,0.8-0.5,1.2-0.8c0.7-0.5,1-1.2,1-2c0-0.1,0-0.3,0-0.4c0-8.3,0-16.7,0-25c0-1.7-0.8-3-2.3-3.8
		c-0.1,0-0.1-0.1-0.2-0.3c0.1,0,0.2,0,0.4,0c1.9,0,3.9,0,5.8,0c0.2,0,0.4,0.1,0.5,0.3c6.6,7.9,13.3,15.8,19.9,23.7
		c0.1,0.1,0.2,0.3,0.4,0.5c0-0.2,0-0.3,0-0.4c0-6.7,0-13.4,0-20.1c0-0.4,0-0.9-0.1-1.3c-0.2-1.2-1.1-1.7-2-2.3
		c-0.1-0.1-0.2-0.2-0.4-0.3c0,0,0-0.1,0-0.1C435.7,11.3,438.5,11.3,441.3,11.3z"/>
	<path d="M375.1,44.2c-3.2,0-6.3-0.5-9.2-1.9c-4.9-2.3-7.9-6.2-8.8-11.6c-0.5-3.1-0.3-6.2,0.8-9.2c1.6-4.3,4.6-7.2,8.8-8.9
		c3.4-1.4,6.9-1.8,10.6-1.5c3.3,0.3,6.4,1.3,9.1,3.2c3.8,2.6,6.1,6.2,6.8,10.8c0.4,3.1,0.3,6.1-0.9,9c-1.7,4.2-4.7,7.1-9,8.7
		C380.8,43.8,378,44.2,375.1,44.2z M363.1,26.6c0,0.7,0.1,1.4,0.1,2.1c0.2,2.6,0.9,5,2.3,7.2c2.6,4.4,8,6.6,12.9,5.3
		c4.5-1.2,7.2-4.3,8.4-8.7c1.3-4.6,0.5-8.9-2-12.9c-2.2-3.5-5.4-5.7-9.7-5.8c-3.5-0.1-6.5,1.2-8.8,3.8
		C364,20.1,363.1,23.2,363.1,26.6z"/>
	<path d="M319.3,11.3c3.6,0,7.2,0,10.9,0c-0.1,0.1-0.2,0.2-0.3,0.3c-0.4,0.2-0.7,0.5-1.1,0.7c-0.7,0.5-1,1.3-1.1,2.2
		c0,0.3,0,0.6,0,1c0,8.4,0,16.8,0,25.2c0,0.2,0,0.3,0,0.5c0.2,0,0.3,0,0.4,0c3,0,6,0,9,0c2,0,4-0.3,5.7-1.4c0.6-0.3,1.1-0.8,1.7-1.3
		c0.1-0.1,0.1-0.2,0.3-0.3c0.4,1.9,0.2,3.7,0.1,5.6c-8.6,0-17.1,0-25.7,0c0.1-0.1,0.2-0.2,0.3-0.3c0.3-0.2,0.6-0.3,0.9-0.5
		c1-0.6,1.4-1.5,1.4-2.6c0-0.1,0-0.3,0-0.4c0-8.2,0-16.5,0-24.7c0-0.4,0-0.9-0.1-1.3c-0.2-1.2-1.1-1.8-2.1-2.3
		c-0.1-0.1-0.2-0.2-0.4-0.2C319.2,11.4,319.2,11.4,319.3,11.3z"/>
	<path d="M305,43.8c-3.5,0-7,0-10.6,0c0.1-0.1,0.2-0.2,0.3-0.3c1-0.7,1.3-1.3,0.9-2.6c-0.2-0.6-0.4-1.2-0.7-1.9
		c-0.5-1.2-1-2.4-1.5-3.6c-0.1-0.2-0.2-0.3-0.4-0.3c-4.6,0-9.2,0-13.8,0c-0.2,0-0.3,0.1-0.4,0.3c-0.6,1.6-1.3,3.1-1.8,4.7
		c-0.2,0.6-0.3,1.3-0.4,1.9c0,0.6,0.3,1.1,0.9,1.4c0.1,0.1,0.2,0.2,0.3,0.4c-2.6,0-5.2,0-7.9,0c0.1-0.1,0.2-0.2,0.3-0.2
		c1.8-0.6,2.7-2,3.4-3.7c3.7-9.4,7.5-18.8,11.2-28.2c0.1-0.3,0.2-0.4,0.6-0.4c1.4,0,2.9,0,4.3,0c0.3,0,0.4,0.1,0.5,0.3
		c3.7,9.4,7.5,18.9,11.3,28.3c0.4,1.1,0.9,2.2,2,2.9c0.4,0.3,0.9,0.5,1.4,0.8C304.8,43.6,304.9,43.7,305,43.8
		C305,43.8,305,43.8,305,43.8z M292.3,32.5c-2.1-5.1-4.1-10.2-6.2-15.4c-2.1,5.2-4.1,10.2-6.1,15.4
		C284.2,32.5,288.2,32.5,292.3,32.5z"/>
	<path d="M170.5,27.6c2.9,0,5.9,0,8.8,0c0,0.1,0,0.2,0,0.4c0,3.6,0,7.1,0,10.7c0,0.2-0.1,0.5-0.3,0.7c-0.4,0.5-0.9,0.9-1.4,1.3
		c-1.9,1.8-4.1,3.2-6.6,4.1c-2.5,0.9-5.1,1.2-7.8,1c-2.7-0.2-5.3-0.8-7.7-2c-4.5-2.4-7.3-6.1-8.3-11.2c-0.6-3-0.5-6,0.6-8.9
		c1.5-4,4.2-6.9,8-8.8c3.1-1.6,6.5-2.2,10-2.1c3.6,0.1,7.1,0.7,10.5,2.2c0.7,0.3,1.4,0.7,2,1c0.1,0.1,0.2,0.2,0.2,0.3
		c-0.1,1.7-0.3,3.4-0.5,5.2c0,0.1,0,0.2,0,0.2c-0.7-0.7-1.4-1.5-2.2-2.2c-2.6-2.2-5.6-3.6-9-4c-5.8-0.7-10.9,2.2-12.8,7.8
		c-2.2,6.2-1,11.9,3.5,16.8c1.5,1.7,3.5,2.8,5.8,3.1c2.8,0.3,5.6,0,8-1.8c0.8-0.6,1.4-1.3,1.9-2.1c0.1-0.1,0.1-0.3,0.1-0.4
		c0-2.4,0-4.8,0-7.1c0-1.7-0.9-2.8-2.4-3.6C170.9,27.9,170.7,27.8,170.5,27.6C170.5,27.7,170.5,27.6,170.5,27.6z"/>
	<path d="M98.9,13c1.3,0,2.7,0,4,0c0.7,0,1.3,0,2,0c0.3,0,0.5,0.1,0.7,0.3c3.1,3.7,6.3,7.5,9.4,11.2c3.5,4.2,7.1,8.4,10.6,12.6
		c0.1,0.1,0.2,0.2,0.3,0.3c0-0.1,0-0.2,0-0.3c0-6.8,0-13.5,0-20.3c0-0.4-0.1-0.8-0.1-1.2c-0.2-1.2-1.1-1.7-2-2.3
		c-0.1-0.1-0.2-0.2-0.4-0.3c0,0,0-0.1,0-0.1c2.7,0,5.4,0,8.2,0c-0.2,0.1-0.2,0.2-0.3,0.3c-0.3,0.2-0.7,0.4-1.1,0.7
		c-0.7,0.5-1.1,1.3-1.1,2.1c0,0.3,0,0.7,0,1c0,8.1,0,16.2,0,24.3c0,0.5,0,1,0.2,1.5c0.2,0.9,0.7,1.5,1.4,2c0.2,0.1,0.3,0.3,0.4,0.4
		c0,0,0,0.1-0.1,0.1c-0.1,0-0.3,0-0.4,0c-1.8,0-3.6,0-5.4,0c-0.3,0-0.4-0.1-0.6-0.3c-5.8-6.8-11.6-13.6-17.5-20.4
		c-0.8-1-1.7-1.9-2.6-2.9c0,0.2,0,0.3,0,0.5c0,6.5,0,13,0,19.5c0,1.6,0.7,2.6,2.1,3.3c0.1,0.1,0.2,0.1,0.3,0.2c0,0,0,0.1,0,0.1
		c-2.7,0-5.4,0-8.2,0c0.2-0.1,0.2-0.2,0.3-0.3c0.4-0.3,0.9-0.5,1.2-0.8c0.6-0.5,0.9-1.1,0.9-1.9c0-0.2,0-0.4,0-0.5
		c0-8.3,0-16.6,0-24.9c0-1.8-0.8-3-2.3-3.9c-0.1,0-0.1-0.1-0.2-0.2C98.9,13,98.9,13,98.9,13z"/>
	<path d="M64.5,45.9c-2.4,0-5.5-0.5-8.4-1.9c-4.9-2.3-7.9-6.2-8.8-11.6c-0.5-3.1-0.3-6.2,0.8-9.2c1.6-4.3,4.6-7.2,8.8-8.9
		c3.4-1.4,6.9-1.8,10.6-1.5c3.3,0.3,6.4,1.3,9.1,3.2c3.8,2.6,6.1,6.2,6.8,10.8c0.4,3.1,0.3,6.1-0.9,9c-1.7,4.2-4.7,7.1-9,8.7
		C70.9,45.4,68.1,45.9,64.5,45.9z M65.7,43.1c1.3,0,2.8-0.3,4-0.8c3.5-1.4,5.7-4.1,6.9-7.6c0.9-2.6,1-5.2,0.4-7.9
		c-0.7-3.4-2.1-6.3-4.7-8.6c-2.9-2.5-6.2-3.5-9.9-2.7c-4.6,1-7.5,4-8.8,8.5c-1,3.7-0.7,7.4,0.7,11C56.3,40.1,60.4,43,65.7,43.1z"/>
</g>
<g>
	<g id="RLgEoT_00000160184128686339370060000008838192756045098400_">
		<g>
			<path d="M187.8,80.8c-0.2,0.6-0.4,1.2-0.7,1.7c-1.1,2.9-2.3,5.9-3.4,8.8c0,0.1-0.1,0.2-0.2,0.2c-0.7,0-1.3,0-2,0
				c-0.1,0-0.2,0-0.2-0.2c-1.8-4.5-3.6-8.9-5.3-13.4c-0.1-0.2-0.2-0.4-0.2-0.5c-0.3-0.6-0.7-1-1.3-1.2c-0.1,0-0.1-0.1-0.2-0.1
				c0,0,0,0,0,0c1.6,0,3.3,0,4.9,0c0,0,0,0.1,0,0.1c0,0,0,0-0.1,0.1c-0.5,0.4-0.6,0.6-0.4,1.2c0.3,0.9,0.7,1.8,1,2.6
				c1.1,2.7,2.2,5.4,3.3,8.2c0,0.1,0,0.1,0.1,0.2c0-0.1,0.1-0.1,0.1-0.2c1.2-3.1,2.4-6.2,3.6-9.3c0-0.1,0-0.2,0-0.4c0,0,0-0.1,0-0.1
				c-0.1-0.4-0.2-0.7-0.2-1.1c0-0.5-0.3-0.8-0.7-1.1c-0.1,0-0.1-0.1-0.1-0.2c1.5,0,3.1,0,4.6,0c0,0.1-0.1,0.1-0.1,0.1
				c-0.1,0.1-0.2,0.1-0.3,0.2c-0.4,0.2-0.5,0.5-0.4,0.9c0,0.2,0.1,0.4,0.1,0.6c1.3,3.5,2.7,7,4,10.5c0,0,0,0.1,0.1,0.2
				c0-0.1,0.1-0.1,0.1-0.2c1.3-3.4,2.7-6.9,4-10.3c0.1-0.3,0.2-0.6,0.2-0.8c0.1-0.4-0.1-0.7-0.4-0.9c-0.1,0-0.1-0.1-0.1-0.2
				c1.2,0,2.5,0,3.7,0c0,0,0,0,0,0c-0.1,0-0.1,0.1-0.2,0.1c-0.7,0.3-1.2,0.8-1.5,1.5c-0.1,0.3-0.2,0.7-0.4,1
				c-1.6,4.2-3.2,8.4-4.8,12.6c0,0.1-0.1,0.2-0.2,0.2c-0.7,0-1.3,0-2,0c-0.1,0-0.2,0-0.2-0.2c-1.4-3.4-2.8-6.9-4.1-10.3
				C187.8,81,187.8,80.9,187.8,80.8z"/>
		</g>
	</g>
	<path d="M284.7,76.1c0.1,0,0.1,0,0.2,0c2.5,0,5,0,7.5,0c1.4,0,2.8,0.2,4,0.8c2,1,3.2,2.5,3.8,4.7c0.5,2,0.4,3.9-0.5,5.7
		c-0.7,1.5-1.9,2.6-3.4,3.3c-1.3,0.6-2.7,0.9-4.2,0.9c-2.4,0-4.8,0-7.2,0c0,0-0.1,0-0.2,0c0.1-0.1,0.1-0.1,0.1-0.1
		c0.1-0.1,0.3-0.2,0.4-0.2c0.5-0.3,0.7-0.7,0.7-1.3c0-0.1,0-0.2,0-0.3c0-3.9,0-7.7,0-11.6c0-0.1,0-0.3,0-0.4c0-0.7-0.5-1-1-1.4
		C284.8,76.2,284.7,76.2,284.7,76.1C284.7,76.1,284.7,76.1,284.7,76.1z M288.7,90.2c0.1,0,0.1,0,0.1,0c1.1,0,2.3,0,3.4,0
		c0.5,0,1-0.1,1.5-0.3c2.2-0.9,3.9-3.4,4-5.9c0-2.2-0.7-4-2.3-5.5c-0.9-0.8-2-1.3-3.2-1.3c-1,0-2.1,0-3.1,0c-0.1,0-0.1,0-0.2,0
		C288.7,81.7,288.7,85.9,288.7,90.2z"/>
	<path d="M265.7,75.9c1.7,0,3.4,0.4,5,1.3c2,1.2,3.2,3,3.5,5.3c0.2,1.5,0.1,2.9-0.4,4.3c-0.8,2-2.3,3.4-4.3,4.1
		c-1.6,0.6-3.3,0.8-4.9,0.6c-1.3-0.1-2.5-0.4-3.7-1c-2.1-1.1-3.4-2.9-3.8-5.3c-0.2-1.5-0.2-3,0.4-4.4c0.8-2,2.2-3.4,4.2-4.2
		C262.9,76.2,264.2,75.9,265.7,75.9z M259.9,83.3c0,0.3,0,0.7,0.1,1c0.1,1.2,0.4,2.3,1.1,3.4c1.3,2.1,3.9,3.2,6.3,2.5
		c2-0.6,3.3-2.1,3.8-4.1c0.6-2.2,0.2-4.3-1-6.2c-1.1-1.7-2.6-2.7-4.6-2.7c-1.7,0-3.1,0.6-4.2,1.8C260.3,80.3,259.9,81.7,259.9,83.3z
		"/>
	<path d="M212.8,84c0,2.1,0,4.1,0,6.2c0.1,0,0.1,0,0.2,0c1.5,0,3.1,0,4.6,0c0.4,0,0.8,0,1.3-0.1c0.6-0.1,1.2-0.4,1.6-0.8
		c0.1-0.1,0.1-0.1,0.2-0.1c0,0.8,0,1.5,0,2.3c-4,0-8,0-12,0c0.1-0.1,0.1-0.1,0.2-0.1c0.1-0.1,0.3-0.2,0.4-0.3
		c0.4-0.3,0.6-0.7,0.6-1.2c0-0.1,0-0.2,0-0.3c0-3.8,0-7.7,0-11.5c0-0.2,0-0.3,0-0.5c0-0.7-0.5-1-1-1.3c-0.1,0-0.1-0.1-0.2-0.1
		c0,0,0,0,0,0c4,0,7.9,0,11.9,0c0,0.7,0,1.5,0,2.3c-0.1,0-0.2,0-0.2-0.1c-0.6-0.7-1.4-0.9-2.3-0.9c-1.8,0-3.6,0-5.3,0
		c0,0-0.1,0-0.1,0c0,1.8,0,3.6,0,5.4c0.1,0,0.1,0,0.1,0c1.4,0,2.7,0,4.1,0c0.3,0,0.6-0.1,0.9-0.1c0.6-0.1,1.1-0.4,1.5-0.8
		c0.1-0.1,0.1-0.1,0.2-0.2c0,1.1,0,2.2,0,3.4c-0.1,0-0.1,0-0.2-0.1c-0.6-0.7-1.5-0.9-2.4-0.9C215.6,84,214.2,84,212.8,84
		C212.8,84,212.8,84,212.8,84z"/>
	<path d="M315,90.3c0.1,0,0.1,0,0.2,0c1.5,0,3.1,0,4.6,0c0.4,0,0.9,0,1.3-0.1c0.6-0.1,1.2-0.4,1.6-0.8c0.1-0.1,0.1-0.1,0.2-0.2
		c0,0.8,0,1.6,0,2.3c-4,0-8,0-12,0c0.1-0.1,0.1-0.1,0.2-0.1c0.1-0.1,0.3-0.2,0.4-0.3c0.4-0.3,0.6-0.7,0.6-1.2c0-0.1,0-0.2,0-0.3
		c0-3.9,0-7.8,0-11.7c0-0.1,0-0.3,0-0.4c0-0.7-0.5-1-1-1.3c-0.1,0-0.1-0.1-0.2-0.1c0,0,0,0,0,0c4,0,7.9,0,11.9,0c0,0.8,0,1.5,0,2.3
		c-0.1,0-0.2-0.1-0.2-0.1c-0.6-0.7-1.4-0.9-2.3-0.9c-1.3,0-2.6,0-3.9,0c-0.5,0-0.9,0-1.4,0c-0.1,0-0.1,0-0.2,0c0,1.8,0,3.6,0,5.4
		c0.1,0,0.1,0,0.1,0c1.4,0,2.7,0,4.1,0c0.3,0,0.6,0,0.9-0.1c0.6-0.1,1.1-0.4,1.5-0.8c0.1-0.1,0.1-0.1,0.2-0.2c0,1.1,0,2.2,0,3.4
		c-0.1,0-0.1,0-0.2-0.1c-0.6-0.7-1.5-0.9-2.4-0.9c-1.4,0-2.8,0-4.2,0c0,0,0,0-0.1,0C315,86.1,315,88.2,315,90.3z"/>
	<path d="M247.2,87.9c-0.1,0.4-0.1,0.9-0.2,1.3c0,0.3-0.1,0.6-0.2,0.9c0,0.1-0.1,0.1-0.1,0.2c-0.9,0.4-1.8,0.9-2.8,1.1
		c-1.2,0.3-2.5,0.3-3.8,0.3c-1.4-0.1-2.8-0.3-4.1-1c-1.9-1-3.1-2.6-3.6-4.7c-0.3-1.5-0.4-3,0-4.5c0.5-2,1.7-3.4,3.5-4.4
		c1.6-0.9,3.3-1.2,5.1-1.1c1.6,0,3.2,0.3,4.7,0.9c0.5,0.2,0.9,0.4,1.3,0.7c0.1,0,0.1,0.1,0.1,0.2c-0.1,0.9-0.3,1.7-0.4,2.6
		c-0.1-0.1-0.1-0.1-0.2-0.2c-0.8-0.9-1.6-1.6-2.6-2.1c-1.4-0.7-2.9-1-4.4-0.6c-1.7,0.4-2.9,1.5-3.8,3c-0.6,1.2-0.8,2.4-0.7,3.8
		c0.1,1.3,0.5,2.6,1.2,3.7c0.9,1.4,2.1,2.2,3.8,2.5c0.6,0.1,1.3,0.1,1.9,0c1.2-0.1,2.4-0.4,3.4-1c0.6-0.3,1.2-0.7,1.6-1.3
		C247,88,247.1,88,247.2,87.9C247.1,87.9,247.1,87.9,247.2,87.9z"/>
</g>
</svg>
