<?xml version="1.0" encoding="utf-8"?>
<!-- Generator: Adobe Illustrator 26.0.3, SVG Export Plug-In . SVG Version: 6.00 Build 0)  -->
<svg version="1.1" id="레이어_1" xmlns="http://www.w3.org/2000/svg" xmlns:xlink="http://www.w3.org/1999/xlink" x="0px"
	 y="0px" viewBox="0 0 24 24" style="enable-background:new 0 0 24 24;" xml:space="preserve">
<g>
	<path d="M12,12.2c2.7,0,5-2.2,5-5c0-2.7-2.2-5-5-5c-2.7,0-5,2.2-5,5C7,9.9,9.3,12.2,12,12.2z M12,3.1c2.2,0,4.1,1.8,4.1,4.1
		s-1.8,4.1-4.1,4.1S7.9,9.4,7.9,7.2S9.8,3.1,12,3.1z"/>
	<path d="M12,13.7c-4.5,0-8.1,3.6-8.1,8.1h0.9c0-4,3.2-7.2,7.2-7.2s7.2,3.2,7.2,7.2h0.9C20.1,17.3,16.5,13.7,12,13.7z"/>
</g>
</svg>
